<svg xmlns="http://www.w3.org/2000/svg" width="460" height="460" viewBox="0 0 460 460" version="1.1"><path d="M 191 95 L 191 190 95.500 190 L 0 190 0 206 L 0 222 111 222 L 222 222 222 111 L 222 0 206.500 0 L 191 0 191 95 M 238 111 L 238 222 349 222 L 460 222 460 206 L 460 190 366 190 L 272 190 272 95 L 272 0 255 0 L 238 0 238 111 M 283.310 5.500 C 283.315 8.800, 283.502 10.029, 283.725 8.232 C 283.947 6.435, 283.943 3.735, 283.715 2.232 C 283.486 0.729, 283.304 2.200, 283.310 5.500 M 17.250 176.748 C 27.013 176.912, 42.988 176.912, 52.750 176.748 C 62.513 176.585, 54.525 176.451, 35 176.451 C 15.475 176.451, 7.488 176.585, 17.250 176.748 M 0 255 L 0 271 95.500 271 L 191 271 191 365.500 L 191 460 206.500 460 L 222 460 222 349.500 L 222 239 111 239 L 0 239 0 255 M 238 349.500 L 238 460 254.995 460 L 271.990 460 272.245 365.250 L 272.500 270.500 366.250 270.245 L 460 269.990 460 254.495 L 460 239 349 239 L 238 239 238 349.500" stroke="none" fill="#07cbfe" fill-rule="evenodd"/><path d="M 177 88.500 L 177 177 88.500 177 L 0 177 0 183.500 L 0 190 95.500 190 L 191 190 191 95 L 191 0 184 0 L 177 0 177 88.500 M 222 111 L 222 222 111 222 L 0 222 0 230.500 L 0 239 111 239 L 222 239 222 349.500 L 222 460 230 460 L 238 460 238 349.504 L 238 239.009 349.250 238.754 L 460.500 238.500 460.785 230 L 461.071 221.500 349.535 221.759 L 238 222.017 238 111.009 L 238 0 230 0 L 222 0 222 111 M 272 95 L 272 190 366 190 L 460 190 460 184 L 460 178 371.500 178 L 283 178 283 89 L 283 0 277.500 0 L 272 0 272 95 M 0.355 230.500 C 0.352 235.450, 0.521 237.601, 0.731 235.280 C 0.940 232.959, 0.943 228.909, 0.736 226.280 C 0.530 223.651, 0.358 225.550, 0.355 230.500 M 272.667 270.667 C 272.300 271.033, 272 313.783, 272 365.667 L 272 460 277.500 460 L 283 460 283 371.505 L 283 283.011 371.750 282.755 L 460.500 282.500 460.798 276.250 L 461.095 270 367.214 270 C 315.580 270, 273.033 270.300, 272.667 270.667 M 1 277 L 1 283 89 283 L 177 283 177 371.500 L 177 460 184 460 L 191 460 191 365.500 L 191 271 96 271 L 1 271 1 277" stroke="none" fill="#f8fbfb" fill-rule="evenodd"/><path d="M 0 87.836 L 0 175.673 52.665 176.336 C 81.630 176.701, 121.455 177, 141.165 177 L 177 177 177 88.500 L 177 0 88.500 0 L 0 0 0 87.836 M 283.654 8.250 C 283.301 12.787, 283.009 52.837, 283.006 97.250 L 283 178 371.500 178 L 460 178 460 89 L 460 0 372.148 -0 L 284.296 -0 283.654 8.250 M 0 371.500 L 0 460 88.500 460 L 177 460 177 371.500 L 177 283 88.500 283 L 0 283 0 371.500 M 284.250 283.662 C 283.263 284.060, 283 302.686, 283 372.083 L 283 460 371.500 460 L 460 460 460 371.500 L 460 283 372.750 283.079 C 324.762 283.122, 284.938 283.385, 284.250 283.662" stroke="none" fill="#0c2c54" fill-rule="evenodd"/></svg>