<svg xmlns="http://www.w3.org/2000/svg" width="386" height="464" viewBox="0 0 386 464" version="1.1"><path d="M 0 231.962 L 0 464 9.400 464 L 18.799 464 18.650 232.250 L 18.500 0.500 9.250 0.212 L 0 -0.075 0 231.962 M 77.833 102.767 L 52.166 103.033 52.126 238.558 L 52.085 374.082 54.792 375.155 C 57.249 376.129, 104.638 375.695, 105.644 374.689 C 105.838 374.495, 106.110 337.698, 106.249 292.918 L 106.500 211.500 119.734 211.221 L 132.968 210.942 133.234 238.221 L 133.500 265.500 160.500 265.500 L 187.500 265.500 187.766 238.221 L 188.032 210.942 201.266 211.221 L 214.500 211.500 214.756 293.201 L 215.012 374.902 240.256 375.201 C 254.140 375.366, 266.512 375.335, 267.750 375.133 L 270 374.767 270 238.883 C 270 164.148, 269.663 102.992, 269.250 102.982 C 268.837 102.973, 260.343 102.690, 250.373 102.354 C 240.403 102.018, 228.366 102.066, 223.623 102.461 L 215 103.180 215 129.496 L 215 155.812 210.009 156.499 C 207.265 156.876, 202.427 157.090, 199.259 156.973 C 196.092 156.857, 192.262 156.815, 190.750 156.881 L 188 157 188 184 L 188 211 160.516 211 L 133.032 211 132.766 183.750 L 132.500 156.500 119.500 156 L 106.500 155.500 106.234 129.351 C 106.033 109.661, 105.662 103.115, 104.734 102.851 C 104.055 102.658, 91.950 102.620, 77.833 102.767 M 351.252 102.662 C 350.264 103.060, 350.007 131.412, 350.014 239.083 L 350.024 375 368.012 375 L 386 375 386 239.151 L 386 103.302 376.250 102.656 C 365.108 101.918, 353.087 101.921, 351.252 102.662" stroke="none" fill="#24f705" fill-rule="evenodd"/><path d="M 18.697 227.750 C 18.806 353.012, 18.918 457.413, 18.947 459.750 L 19 464 202.500 464 L 386 464 386 419.500 L 386 375 368.012 375 L 350.024 375 350.014 239.018 L 350.005 103.037 352.623 102.380 C 354.062 102.019, 362.161 102.039, 370.620 102.426 L 386 103.130 386 51.565 L 386 0 202.250 -0 L 18.500 -0 18.697 227.750 M 77.833 102.767 L 52.166 103.033 52.126 238.558 L 52.085 374.082 54.792 375.155 C 57.249 376.129, 104.638 375.695, 105.644 374.689 C 105.838 374.495, 106.110 337.698, 106.249 292.918 L 106.500 211.500 119.734 211.221 L 132.968 210.942 133.234 238.221 L 133.500 265.500 160.500 265.500 L 187.500 265.500 187.766 238.221 L 188.032 210.942 201.266 211.221 L 214.500 211.500 214.756 293.201 L 215.012 374.902 240.256 375.201 C 254.140 375.366, 266.512 375.335, 267.750 375.133 L 270 374.767 270 238.883 C 270 164.148, 269.663 102.992, 269.250 102.982 C 268.837 102.973, 260.343 102.690, 250.373 102.354 C 240.403 102.018, 228.366 102.066, 223.623 102.461 L 215 103.180 215 129.496 L 215 155.812 210.009 156.499 C 207.265 156.876, 202.427 157.090, 199.259 156.973 C 196.092 156.857, 192.262 156.815, 190.750 156.881 L 188 157 188 184 L 188 211 160.516 211 L 133.032 211 132.766 183.750 L 132.500 156.500 119.500 156 L 106.500 155.500 106.234 129.351 C 106.033 109.661, 105.662 103.115, 104.734 102.851 C 104.055 102.658, 91.950 102.620, 77.833 102.767" stroke="none" fill="#040504" fill-rule="evenodd"/></svg>