<svg width="386" height="464" xmlns="http://www.w3.org/2000/svg" version="1.1">

 <g>
  <title>Layer 1</title>
  <path id="svg_1" fill-rule="evenodd" fill="#24f705" d="m0,231.962l0,232.038l9.4,0l9.399,0l-0.149,-231.75l-0.15,-231.75l-9.25,-0.288l-9.25,-0.287l0,232.037m77.833,-129.195l-25.667,0.266l-0.04,135.525l-0.041,135.524l2.707,1.073c2.457,0.974 49.846,0.54 50.852,-0.466c0.194,-0.194 0.466,-36.991 0.605,-81.771l0.251,-81.418l13.234,-0.279l13.234,-0.279l0.266,27.279l0.266,27.279l27,0l27,0l0.266,-27.279l0.266,-27.279l13.234,0.279l13.234,0.279l0.256,81.701l0.256,81.701l25.244,0.299c13.884,0.165 26.256,0.134 27.494,-0.068l2.25,-0.366l0,-135.884c0,-74.735 -0.337,-135.891 -0.75,-135.901c-0.413,-0.009 -8.907,-0.292 -18.877,-0.628c-9.97,-0.336 -22.007,-0.288 -26.75,0.107l-8.623,0.719l0,26.316l0,26.316l-4.991,0.687c-2.744,0.377 -7.582,0.591 -10.75,0.474c-3.167,-0.116 -6.997,-0.158 -8.509,-0.092l-2.75,0.119l0,27l0,27l-27.484,0l-27.484,0l-0.266,-27.25l-0.266,-27.25l-13,-0.5l-13,-0.5l-0.266,-26.149c-0.201,-19.69 -0.572,-26.236 -1.5,-26.5c-0.679,-0.193 -12.784,-0.231 -26.901,-0.084m273.419,-0.105c-0.988,0.398 -1.245,28.75 -1.238,136.421l0.01,135.917l17.988,0l17.988,0l0,-135.849l0,-135.849l-9.75,-0.646c-11.142,-0.738 -23.163,-0.735 -24.998,0.006"/>
  <path id="svg_2" fill-rule="evenodd" fill="#040504" d="m18.697,227.75c0.109,125.262 0.221,229.663 0.25,232l0.053,4.25l183.5,0l183.5,0l0,-44.5l0,-44.5l-17.988,0l-17.988,0l-0.01,-135.982l-0.009,-135.981l2.618,-0.657c1.439,-0.361 9.538,-0.341 17.997,0.046l15.38,0.704l0,-51.565l0,-51.565l-183.75,0l-183.75,0l0.197,227.75m59.136,-124.983l-25.667,0.266l-0.04,135.525l-0.041,135.524l2.707,1.073c2.457,0.974 49.846,0.54 50.852,-0.466c0.194,-0.194 0.466,-36.991 0.605,-81.771l0.251,-81.418l13.234,-0.279l13.234,-0.279l0.266,27.279l0.266,27.279l27,0l27,0l0.266,-27.279l0.266,-27.279l13.234,0.279l13.234,0.279l0.256,81.701l0.256,81.701l25.244,0.299c13.884,0.165 26.256,0.134 27.494,-0.068l2.25,-0.366l0,-135.884c0,-74.735 -0.337,-135.891 -0.75,-135.901c-0.413,-0.009 -8.907,-0.292 -18.877,-0.628c-9.97,-0.336 -22.007,-0.288 -26.75,0.107l-8.623,0.719l0,26.316l0,26.316l-4.991,0.687c-2.744,0.377 -7.582,0.591 -10.75,0.474c-3.167,-0.116 -6.997,-0.158 -8.509,-0.092l-2.75,0.119l0,27l0,27l-27.484,0l-27.484,0l-0.266,-27.25l-0.266,-27.25l-13,-0.5l-13,-0.5l-0.266,-26.149c-0.201,-19.69 -0.572,-26.236 -1.5,-26.5c-0.679,-0.193 -12.784,-0.231 -26.901,-0.084"/>
  <rect stroke="#000" id="svg_3" height="278" width="42" y="101" x="348" fill="#e4f407"/>
  <rect id="svg_6" height="498" width="36" y="-7" x="-15" fill="#24f705"/>
 </g>
</svg>